<?xml version="1.0" encoding="utf-8"?>
<!-- Generator: Adobe Illustrator 18.0.0, SVG Export Plug-In . SVG Version: 6.00 Build 0)  -->
<!DOCTYPE svg PUBLIC "-//W3C//DTD SVG 1.1//EN" "http://www.w3.org/Graphics/SVG/1.1/DTD/svg11.dtd">
<svg version="1.1" id="Layer_1" xmlns="http://www.w3.org/2000/svg" xmlns:xlink="http://www.w3.org/1999/xlink" x="0px" y="0px"
	 viewBox="0 76 800 148" enable-background="new 0 76 800 148" xml:space="preserve">
<g>
	<path fill="#FFFFFF" d="M308.5,216.1c-1.3-0.9-2.9-0.8-4.4-1.2c-11.4-3.5-18.7-11.3-22.7-22.2c-6.1-16.9-4.6-33,7.2-47
		c10.5-12.5,28.3-14.9,41-6.1c1.6,1.1,3.1,2.5,4.9,4c0-1.8,0.1-3.4,0-4.9c-0.1-1.3,0.3-1.8,1.7-1.8c6.2,0.1,12.4,0.1,18.6,0
		c1.8,0,1.5,1,1.5,2.1c0,15.9,0,31.7,0,47.6c0,8.4-0.1,16.7,0,25.1c0,1.7-0.4,2.2-2.2,2.2c-5.8-0.1-11.6-0.1-17.4,0
		c-2,0-2.4-0.7-2.2-2.4c0.1-1.4,0-2.8,0-4.2c-0.2,0-0.4-0.1-0.5,0c-4.3,4.8-9.6,7.6-16,8.6c-0.1,0-0.2,0.2-0.3,0.3
		C314.7,216.1,311.6,216.1,308.5,216.1z M300.5,175.1c-0.1,5.4,1.5,10.2,4.7,14.5c6.6,8.9,18.3,9.5,25.7,1.4
		c8-8.8,7.8-23.3-0.4-31.9c-6.5-6.8-16.8-7-23.4-0.3C302.6,163.2,300.6,168.8,300.5,175.1z"/>
	<path fill="#FFFFFF" d="M58.1,81.9c3.4,1,6.7,2.1,10.1,3c1.7,0.5,2.3,1.2,1.7,3.1c-1.6,4.5-2.9,9.1-4.2,13.7
		c-0.4,1.5-0.9,1.6-2.2,1c-2.1-1.1-4.4-1.8-6.9-1.9c-4.5,0-7.4,2.8-8.2,8.1c-0.5,3.3-0.5,6.6-0.4,10c0.1,5.8,0.1,11.6,0,17.4
		c0,1.4,0.4,1.8,1.8,1.8c5.3-0.1,10.7,0,16-0.1c1.6,0,1.9,0.5,1.9,2c-0.1,4.8-0.1,9.6,0,14.4c0,1.4-0.4,1.8-1.8,1.8
		c-5.3-0.1-10.5,0-15.8-0.1c-1.8,0-2.2,0.5-2.2,2.2c0.1,17.4,0,34.8,0.1,52.2c0,2-0.4,2.7-2.5,2.6c-5.5-0.2-11-0.2-16.5,0
		c-2.3,0.1-2.6-0.7-2.6-2.7c0.1-17.3,0-34.5,0.1-51.8c0-2-0.5-2.6-2.5-2.5c-4.1,0.2-8.2,0.1-12.3,0.1c0-6,0-12.1,0-18.1
		c4.2,0,8.5-0.1,12.7,0c1.6,0,2.1-0.4,2.1-2c-0.1-6.6,0-13.1,0-19.7c0-4.5,0.4-9,1.5-13.3c2.5-9.6,7.7-16.9,17.6-20
		c1.4-0.4,2.9-0.3,4.2-1.2C52.6,81.9,55.4,81.9,58.1,81.9z"/>
	<path fill="#FFFFFF" d="M583.8,137.1c12.2-21.4,29.1-36.1,53.4-40.9c36.5-7.2,65.5,11.5,81.5,39.2c3.7,6.5,7.8,12.6,14.1,17
		c16.8,11.6,40.7,7.8,53.5-8.5c0.4-0.5,0.9-1.1,1.5-1.8c0,0.6,0.1,0.9,0,1.1c-11.4,20.3-27.3,35.5-50.7,40.1
		c-32.1,6.4-58.5-3.8-78.3-30.1c-2.5-3.3-4.5-6.8-6.5-10.4c-7.5-13.2-18.5-21.2-33.8-21.9c-13.1-0.6-23.9,4.5-32.4,14.6
		C585.5,136.1,585.2,137,583.8,137.1z"/>
	<path fill="#FFFFFF" d="M268.6,186.6c0,9.3-0.1,16.9,0,24.6c0,1.8-0.5,2.2-2.2,2.1c-5.6-0.1-11.3-0.1-16.9,0
		c-1.9,0-2.5-0.4-2.5-2.4c0.1-13.2,0.1-26.5,0-39.7c0-3.6-0.4-7.1-1.7-10.5c-1.9-4.6-5.4-6.9-10.5-6.9s-8.6,2.4-10.4,7
		c-1.3,3.3-1.6,6.7-1.6,10.2c0,13.2,0,26.5,0,39.7c0,1.9-0.4,2.5-2.4,2.5c-5.7-0.1-11.5-0.1-17.2,0c-1.8,0-2.2-0.5-2.2-2.2
		c0.1-13.3,0.1-26.6,0-39.9c0-3.6-0.4-7.1-1.8-10.5c-1.9-4.6-5.4-6.9-10.5-6.9c-5,0-8.6,2.4-10.4,7.1c-1.2,3.1-1.6,6.4-1.6,9.8
		c0,13.4,0,26.8,0.1,40.2c0,2-0.5,2.4-2.4,2.4c-5.7-0.1-11.5-0.1-17.2,0c-1.5,0-2.2-0.2-2.2-2c0.1-14.6,0-29.1,0.1-43.7
		c0-3.7,0.5-7.4,1.5-11c2.8-10.2,9.4-16.7,19.6-19.4c8.6-2.2,17.3-2.2,25.9,0.2c3,0.8,5.8,2.1,8.4,3.8c0.7,0.5,1.2,0.9,2.2,0.2
		c8.1-5.4,17.3-6.2,26.7-5.5c2.7,0.2,5.4,0.6,8,1.3c11.8,3.3,19,11.7,20.5,24C269.2,170.2,268.3,179.2,268.6,186.6z"/>
	<path fill="#FFFFFF" d="M76,162.1c0-7.2,0.1-14.4-0.1-21.6c0-2.2,0.7-2.7,2.7-2.6c5.4,0.1,10.8,0.1,16.3,0c2-0.1,2.7,0.4,2.7,2.6
		c-0.1,13.9,0,27.7,0,41.6c0,3.1,0.6,6.1,1.9,9c2,4.3,5.6,6.2,10.1,6.2c4.6,0,8.3-1.8,10.2-6.2c1.6-3.7,2-7.6,2-11.6
		c0-13.1,0-26.2,0-39.2c0-1.8,0.5-2.3,2.3-2.3c5.8,0.1,11.6,0.1,17.4,0c1.6,0,1.9,0.5,1.9,2c0,14.6,0,29.1-0.1,43.7
		c0,3.8-0.5,7.5-1.6,11.2c-2.7,9.3-8.5,15.7-17.8,18.6c-9.3,2.9-18.8,2.9-28.1,0.2c-11.1-3.2-17.1-11.1-19.2-22.2
		c-0.5-3-0.8-6-0.8-9C76,175.6,76,168.9,76,162.1z"/>
	<path fill="#FFFFFF" d="M509,199.8c-3.3,4.9-7.2,8.4-12,10.9c-14.3,7.5-31.4,5.4-43-5.7c-7.9-7.5-11.3-17.2-11.7-27.9
		c-0.4-9.9,1.6-19.3,7.7-27.3c8.6-11.4,20.5-15.2,34.3-13.7c9.8,1,17.9,5.5,24,13.4c0.1,0.2,0.3,0.3,0.9,0.7c0-3.8,0.1-7.3,0-10.8
		c0-1.6,0.4-2.1,2-2.1c5.5,0,5.5-0.1,5.5,5.3c0,22.8,0,45.5,0,68.3c0,2-0.4,2.6-2.5,2.5c-5-0.2-5,0-5-5.1c0-2.6,0-5.1,0-7.7
		C509.1,200.6,509.1,200.5,509,199.8z M479.7,207.9c7.6,0,14.4-2.1,19.8-7.6c9.5-9.7,11.9-21.7,9.1-34.5c-2.5-11.4-9.7-19.1-21.1-22
		c-11.2-2.9-21.2-0.3-29.1,8.5c-10.3,11.5-11.6,29-3.2,42C460.8,203.1,469,207.9,479.7,207.9z"/>
	<path fill="#FFFFFF" d="M616,176.1c-10.1,0-20.3,0.1-30.4-0.1c-2.1,0-2.7,0.5-2.7,2.6c0.4,13.3,8.8,24.5,21.1,28.1
		c13.5,3.9,26.5-1,34.3-12.9c2-3,2-3,5.2-1.1c3.1,1.8,3.1,1.8,1.2,4.8c-12.9,20.5-41.9,23.8-58.6,6.6c-6.1-6.3-9.3-14-10.4-22.6
		c-1.6-12.6,1.1-24.1,9.6-34c15.9-18.6,51.6-16.6,61.3,13.1c1.4,4.3,2.1,8.7,2.3,13.2c0.1,1.7-0.4,2.2-2.1,2.2
		C636.6,176,626.3,176.1,616,176.1z M612.1,169.1c9,0,18-0.1,26.9,0.1c2.2,0,2.5-0.5,2.1-2.6c-2.9-13.8-15.1-24-28.7-23.9
		c-14,0.1-26.4,10.3-29.2,24c-0.4,1.8-0.2,2.4,1.9,2.4C594.1,169,603.1,169.1,612.1,169.1z"/>
	<path fill="#FFFFFF" d="M436.2,194.6c0,2.2-0.3,4,0.1,5.7c0.6,3.5-1.2,5.3-3.8,7.1c-16.5,11.3-38.5,10-51.7-3.8
		c-11.1-11.4-14-25.3-9.6-40.4c4.3-14.9,14.7-24,29.9-26.9c11.8-2.3,22.9,0,32.7,7.4c1.2,0.9,1.7,1.8,1.6,3.3c-0.1,2.5,0,4.9,0,8
		c-9.3-9.5-19.9-14.1-32.8-11.7c-7.9,1.4-14.1,5.6-18.9,12c-10.2,13.6-8.4,32.4,4.1,44.5C398.4,210.4,420.2,212.4,436.2,194.6z"/>
	<path fill="#FFFFFF" d="M546.9,146.5c2.5-3.9,5.1-7.3,9.2-9.2c4.8-2.2,9.7-2.2,14.6-0.3c1.1,0.4,1.1,0.8,0.6,1.6
		c-0.4,0.6-0.7,1.2-1.1,1.8c-0.7,1.1-1.1,2.6-2.1,3.3c-1.1,0.8-2.4-0.6-3.6-0.8c-5.9-1.3-12.3,2.3-14.8,8.5c-2,4.8-2.4,9.9-2.6,15
		c-0.4,14.9-0.1,29.7-0.1,44.6c0,1.9-0.4,2.5-2.4,2.5c-5.1-0.1-5.1,0-5.1-5.1c0-22.8,0-45.7,0-68.5c0-2,0.4-2.7,2.5-2.6
		c5,0.2,5,0,5,5C546.9,143.6,546.9,145.1,546.9,146.5z"/>
	<path fill="#FFFFFF" d="M661,201.6c0-7.5,5.5-13.1,13-13.1c7.7,0,13.4,5.5,13.4,13c0,7.4-5.6,13.1-13,13.2
		C666.7,214.8,661,209.2,661,201.6z M674.2,190.5c-6.2,0-10.9,4.7-11,11c-0.1,6.4,4.8,11.3,11,11.3c6.1,0,11-5,11-11.2
		C685.1,195.4,680.4,190.6,674.2,190.5z"/>
	<path fill="#FFFFFF" d="M680.7,208.9c-1-1.6-2-3.1-3.1-4.6c-0.7-1-1.2-1.6,0.4-2.4c2-0.9,2.4-2.7,2-4.7c-0.3-2-1.6-2.9-3.5-3.1
		c-2-0.1-4-0.1-6-0.2c-0.7,0-1.2,0.2-1.2,1c0,4.4,0,8.8,0,13.2c0,0.6,0.3,1,1,1s1-0.3,1-1c0-1.2-0.1-2.3,0-3.5
		c0.1-0.7-0.6-1.9,0.6-2.1c1.2-0.2,2.4-0.4,3.2,1.1c0.7,1.4,1.8,2.7,2.6,4.1C678.3,209.1,679.2,209.4,680.7,208.9z"/>
	<path fill="#FFFFFF" d="M680.7,208.9c-1.5,0.6-2.4,0.2-3-1.1c-0.8-1.4-1.8-2.7-2.6-4.1c-0.8-1.5-2-1.4-3.2-1.1
		c-1.2,0.2-0.5,1.4-0.6,2.1c-0.1,1.1,0,2.3,0,3.5c0,0.7-0.3,1-1,1s-1-0.3-1-1c0-4.4,0-8.8,0-13.2c0-0.8,0.5-1,1.2-1c2,0.1,4,0,6,0.2
		c1.9,0.1,3.2,1.1,3.5,3.1s-0.1,3.9-2,4.7c-1.7,0.7-1.1,1.4-0.4,2.4C678.7,205.8,679.6,207.4,680.7,208.9z M673.7,200.8
		c0.4,0,0.6,0,0.8,0c1.5-0.1,3.1-0.1,3.6-1.9c0.3-1.1,0-2.2-1.2-2.7c-1.7-0.8-3.9-1.1-5.3-0.1c-1,0.7-0.5,2.8-0.2,4.2
		C671.6,201.4,673,200.6,673.7,200.8z"/>
</g>
</svg>
